<?xml version="1.0" encoding="UTF-8"?>
<svg xmlns="http://www.w3.org/2000/svg" xmlns:xlink="http://www.w3.org/1999/xlink" version="1.1" viewBox="0 0 70.05 87.98">
  <defs>
    <style>
      .cls-1 {
        fill: none;
      }

      .cls-2 {
        clip-path: url(#clippath);
      }
    </style>
    <clipPath id="clippath">
      <rect class="cls-1" x="19.44" y="15.99" width="33.4" height="56"/>
    </clipPath>
  </defs>
  <!-- Generator: Adobe Illustrator 28.6.0, SVG Export Plug-In . SVG Version: 1.2.0 Build 709)  -->
  <g>
    <g id="Ebene_1">
      <g id="Gruppe_1035">
        <g class="cls-2">
          <g id="Gruppe_895">
            <path id="Pfad_1012" d="M19.54,46.8c0-3.52.16-7.05-.04-10.56-.26-4.52.2-8.76,3.07-12.48.63-.89.81-2.02.49-3.07-.56-3.01.62-4.57,3.54-4.63,6.38-.12,12.77-.09,19.15,0,2.49.03,4.18,1.51,3.58,4.01-.44,1.7-.04,3.5,1.06,4.86,2,2.83,2.5,5.91,2.44,9.33-.16,9.35-.03,18.71-.06,28.07-.05,5.25-4.27,9.51-9.52,9.62-5.28.01-10.57-.06-15.85.04-2.37.04-3.51-1.18-5-2.91-3.14-3.67-2.95-7.78-2.88-12.04.06-3.41.01-6.82.01-10.24M36.44,38.89c-2.08.12-4.18.08-6.23.37-8.9,1.25-8.95,1.43-8.89,10.28.01,2.11.68,3.15,2.72,3.74,6.44,1.89,13.24,2.24,19.84,1.03q7.01-1.25,7.01-8.13c-.05-.55-.04-1.1.02-1.64.47-2.52-.89-3.51-3.09-4.08-3.7-1.03-7.52-1.56-11.37-1.58M22.55,28.31c.22.09.44.16.67.23.99.23,2.7-.39,2.77.95.09,1.62-1.63.99-2.56.97-1.6-.02-2.16.65-2.08,2.16.08,1.32.07,2.64-.01,3.95-.17,2.21.37,2.88,2.78,2.14,6.88-2.04,14.15-2.32,21.16-.8,5.73,1.13,5.6,1.2,5.65-4.53.02-2.35-.75-2.98-3.01-2.91-4.93.15-9.88.07-14.82,0-.94-.01-2.61.6-2.56-1.02.03-1.19,1.58-.83,2.5-.83,4.94-.05,9.88-.02,14.83-.06.65,0,1.65.47,1.81-.76.2-1.59-2.8-4.66-4.57-4.67-5.05-.03-10.13.3-15.15-.1-4.12-.34-6.39,1.16-7.39,5.28M48.17,66.89c-5.34,0-10.59.01-15.84-.02-.7,0-1.79.27-1.82-.82-.03-1.03,1.05-.99,1.76-1,3.63-.05,7.26-.04,10.89-.04,8.02,0,7.95,0,7.77-8.11-.05-2.1-.62-2.33-2.49-1.76-6.99,2.09-14.38,2.39-21.52.87-5.6-1.11-5.52-1.18-5.61,4.64-.04,2.64-.1,4.98,3.64,4.43.54-.09,1.05.28,1.14.82,0,.03,0,.07.01.1-.02.3-.19.57-.45.72-.95.26-2.08.23-1.3,1.81.42,1.04,1.48,1.67,2.59,1.55,6.05-.05,12.1-.08,18.15,0,2.12.03,2.95-.96,3.08-3.18M36.52,17.95h-9.55c-1.06,0-2.05.16-2.12,1.49-.07,1.27.73,1.73,1.88,1.73h18.78c1.09,0,2.01-.35,1.99-1.65-.02-1.32-1.04-1.56-2.08-1.57-2.96-.03-5.93,0-8.9-.01"/>
          </g>
        </g>
      </g>
    </g>
  </g>
</svg>