<?xml version="1.0" encoding="UTF-8"?>
<svg xmlns="http://www.w3.org/2000/svg" xmlns:xlink="http://www.w3.org/1999/xlink" version="1.1" viewBox="0 0 70.05 87.98">
  <defs>
    <style>
      .cls-1 {
        fill: none;
      }

      .cls-2 {
        clip-path: url(#clippath);
      }
    </style>
    <clipPath id="clippath">
      <rect class="cls-1" x="15.19" y="18.12" width="39.67" height="61"/>
    </clipPath>
  </defs>
  <!-- Generator: Adobe Illustrator 28.6.0, SVG Export Plug-In . SVG Version: 1.2.0 Build 709)  -->
  <g>
    <g id="Ebene_1">
      <g class="cls-2">
        <g id="Gruppe_1060">
          <path id="Pfad_8356" d="M33.27,79.1c-2.44,0-4.88-.04-7.31.02-1.02.02-1.51-.17-1.7-1.36-1.84-11.24-3.77-22.47-5.64-33.71-.14-.83-.29-1.27-1.29-1.3-1.19-.02-2.14-1.01-2.12-2.21,0,0,0,0,0,0-.23-1.17.52-2.32,1.69-2.57.99-.21,1.01-.72,1.1-1.47.92-8.48,8.54-14.6,17.02-13.68,1.45.16,2.87.52,4.22,1.08,1.06.43,1.37.29,1.7-.76,1.8-5.7,1.79-4.98,7.03-5,1.95,0,3.9.05,5.85-.02,1.35-.05,1,.87,1.02,1.58.02.69.24,1.49-.99,1.45-2.39-.07-4.78.02-7.17-.03-1.03-.11-2,.54-2.28,1.54-.98,2.21-1.13,3.93.92,5.83,2.07,2.12,3.28,4.94,3.39,7.9.07.81.17,1.36,1.19,1.59,1.16.27,1.9,1.41,1.66,2.58,0,1.19-.95,2.17-2.15,2.18-1.06,0-1.18.58-1.31,1.34-1.18,7.16-2.37,14.31-3.56,21.47-.68,4.08-1.4,8.16-2.03,12.25-.16,1.04-.6,1.34-1.62,1.31-2.53-.08-5.07-.03-7.6-.03h0ZM33.4,42.8c-4.29,0-8.58.01-12.87-.01-.81,0-1.31.09-1.13,1.11.64,3.6,1.23,7.2,1.82,10.8.12.71.47.95,1.19.93,1.32-.05,2.64-.06,3.95,0,1.01.07,2.01-.24,2.82-.86,2.48-1.8,5.29-2.07,7.79-.34,1.41.92,3.09,1.34,4.77,1.19.83,0,1.66-.05,2.49.01s1.19-.21,1.32-1.09c.53-3.51,1.11-7.02,1.77-10.52.19-1.03-.06-1.24-1.03-1.23-4.29.04-8.58.02-12.87.02M33.39,78.35c2.34,0,4.68-.01,7.02,0,.7,0,1.15-.07,1.28-.96.56-3.66,1.21-7.3,1.82-10.96.05-.3.29-.84-.23-.79-1.87.17-3.81-.67-5.61.7-2.39,1.82-5.24,2.16-7.67.51-1.91-1.29-3.77-1.21-5.78-1.3-.98-.04-1.14.32-.99,1.19.61,3.45,1.2,6.91,1.73,10.38.15.99.6,1.25,1.55,1.23,2.29-.06,4.59-.02,6.88-.02M27.2,37.8c2.53,0,5.07-.01,7.6,0,.64,0,1.07-.07,1.31-.81,1.23-3.69,2.51-7.36,3.82-11.03.21-.6.07-.85-.48-1.1-7.39-3.34-16.09-.06-19.43,7.33-.64,1.42-1.06,2.93-1.22,4.48-.1.93.21,1.15,1.1,1.13,2.43-.06,4.87-.02,7.31-.02M26.99,60.58c.03,3.53,2.88,6.4,6.41,6.44,3.55,0,6.43-2.86,6.43-6.41,0-3.55-2.86-6.43-6.41-6.43-3.54,0-6.42,2.86-6.43,6.4M33.37,38.61h-14.63c-.44-.02-.88,0-1.31.06-.82.08-1.43.8-1.39,1.62-.08.82.5,1.56,1.32,1.67.43.08.87.11,1.31.1,9.7,0,19.41,0,29.11,0,.58.02,1.17-.03,1.74-.15.75-.15,1.27-.85,1.19-1.62.02-.77-.51-1.44-1.26-1.59-.48-.09-.97-.12-1.45-.08-4.88,0-9.75,0-14.63,0M42.88,27.14c-1.17,3.4-2.27,6.61-3.41,9.82-.24.68-.08.86.6.85,2.39-.02,4.77-.02,7.16,0,.65,0,.83-.24.76-.88-.36-3.8-2.19-7.31-5.1-9.79M39.4,64.77c1.34,0,2.5-.02,3.66,0,.63.01.82-.3.91-.88.35-2.21.73-4.42,1.12-6.62.1-.58.02-.94-.69-.92-1.41.03-2.83,0-4.24.01-.52,0-.74.21-.46.72,1.35,2.53,1.07,5.05-.29,7.68M27.44,56.35c-1.81,0-3.31.04-4.81-.02-.91-.04-1.08.33-.93,1.12.23,1.19.43,2.39.6,3.59q.59,4.08,4.73,3.66c.09-.04.18-.08.26-.13-1.57-2.53-1.52-5.75.14-8.22M49.47,20.39h0c1.22,0,2.44-.01,3.65,0,.53,0,.97-.04.96-.76s-.44-.75-.97-.75c-2.68,0-5.36,0-8.04.01-.85-.11-1.69.32-2.09,1.08-.61,1.43-1.09,2.91-1.6,4.38-.23.67.35.89.76,1.05.58.23.55-.36.67-.69.32-.87.63-1.74.91-2.62.24-1.1,1.27-1.84,2.39-1.71,1.12.05,2.24,0,3.36,0M36.77,37.63c1.21.46,1.66-.02,1.98-1.05.63-2.09,1.4-4.15,2.11-6.22.38-1.1.74-2.22,1.15-3.31.26-.68-.26-.86-.65-1.11-.48-.3-.56.11-.67.43-1.31,3.75-2.61,7.5-3.92,11.25"/>
          <path id="Pfad_8357" d="M26.48,27.32c.11.09.26.16.32.27.15.29-.09.45-.28.58-.89.59-1.7,1.3-2.42,2.1-.97,1.09-1.69,2.38-2.13,3.78-.1.32-.23.74-.67.56-.3-.12-.22-.52-.13-.79.81-2.63,2.54-4.87,4.89-6.31.13-.07.27-.13.41-.18"/>
        </g>
      </g>
    </g>
  </g>
</svg>