<?xml version="1.0" encoding="UTF-8"?>
<svg xmlns="http://www.w3.org/2000/svg" xmlns:xlink="http://www.w3.org/1999/xlink" version="1.1" viewBox="0 0 70.05 87.98">
  <defs>
    <style>
      .cls-1 {
        fill: none;
      }

      .cls-2 {
        clip-path: url(#clippath);
      }
    </style>
    <clipPath id="clippath">
      <rect class="cls-1" x="18.3" y="3.99" width="28.47" height="80"/>
    </clipPath>
  </defs>
  <!-- Generator: Adobe Illustrator 28.6.0, SVG Export Plug-In . SVG Version: 1.2.0 Build 709)  -->
  <g>
    <g id="Ebene_1">
      <g class="cls-2">
        <g id="Gruppe_1064">
          <path id="Pfad_8359" d="M32.59,4c1.26,0,2.51-.01,3.77,0,1.03-.12,1.96.61,2.08,1.64.01.13.02.25,0,.38.03.94.01,1.88,0,2.83.05.65-.28,1.26-.84,1.59-.58.3-.6.72-.58,1.24.09,1.14.53,2.21,1.27,3.08,1.21,1.56,2.48,3.08,3.71,4.62,2.29,2.65,3.84,5.86,4.49,9.3.16,1.02.25,2.06.25,3.09.03,4.55-.01,9.1.02,13.66.07,3.2-.3,6.4-1.1,9.51-.85,3.33-.82,6.83.08,10.14,1.16,4.35,1.33,8.91.49,13.34-.24,1.37-.79,2.66-1.62,3.78-1.21,1.82-3.67,2.31-5.49,1.1-.03-.02-.07-.05-.1-.07-1.18-1.02-2.92-1.03-4.11-.04-1.41,1.07-3.36,1.06-4.76-.02-1.14-.96-2.81-.97-3.97-.03-1.74,1.34-4.23,1.01-5.56-.73-.12-.15-.23-.32-.32-.49-1.48-2.17-1.76-4.67-1.9-7.19-.17-3.49.21-6.98,1.11-10.35.8-3.15.77-6.46-.1-9.59-.74-2.83-1.09-5.74-1.05-8.66.02-4.21.16-8.42-.03-12.62-.25-5.56,1.73-10.98,5.52-15.06,1.21-1.31,2.33-2.72,3.33-4.2.46-.68.76-1.45.88-2.26.07-.68.11-1.26-.67-1.65-.49-.32-.76-.88-.71-1.46,0-.97-.02-1.95,0-2.92-.07-1,.69-1.88,1.69-1.95.09,0,.18,0,.27,0,1.32-.03,2.64,0,3.95,0M32.66,47.11c-3.83,0-7.66.02-11.49-.02-.77,0-.97.23-.92.97.09,1.85.36,3.69.8,5.49,1.14,3.94,1.18,8.12.11,12.08-.73,2.77-1.03,5.63-.91,8.49-.05,2.14.39,4.27,1.27,6.22.94,1.82,2.22,2.18,3.91,1.05,1.57-1.22,3.78-1.22,5.35,0,1,.85,2.46.85,3.47.01.94-.71,2.11-1.03,3.28-.88.83.16,1.62.51,2.29,1.03.97.79,2.39.64,3.18-.33.11-.14.21-.28.28-.44.51-.8.86-1.68,1.05-2.61.82-4.21.66-8.54-.45-12.68-.99-3.72-.99-7.63,0-11.35.54-2,.85-4.06.92-6.13.03-.68-.12-.92-.86-.92-3.77.04-7.54.02-11.3.02M32.48,46.17c3.83,0,7.66-.02,11.48.01.7,0,.92-.2.91-.91-.03-4.43-.03-8.85,0-13.27,0-.7-.2-.91-.91-.9-7.59.02-15.19.02-22.78,0-.74,0-.95.2-.95.95.03,4.39.03,8.79,0,13.18,0,.74.2.97.95.96,3.76-.03,7.53-.02,11.3-.02M32.57,30.19c3.77,0,7.53-.02,11.3.02.82,0,.94-.28.81-.99-.39-2.23-1.22-4.36-2.45-6.27-1.45-2.29-3.33-4.25-4.98-6.38-1.31-1.42-2.07-3.27-2.12-5.2.02-.47-.19-.6-.61-.59-.94.02-1.88,0-2.82,0-1.56,0-1.57,0-1.78,1.53-.36,1.76-1.21,3.39-2.43,4.71-1.38,1.75-2.9,3.39-4.16,5.23-1.48,2.08-2.47,4.47-2.9,6.98-.12.73.06.98.85.98,3.77-.04,7.53-.02,11.3-.02M32.55,8.9c1.13,0,2.26-.03,3.39,0,.75.02.67-.53.56-.89-.21-.71.67-1.97-.55-2.08-2.27-.21-4.57-.05-6.86-.06-.76,0-.61.59-.52.93.19.69-.64,1.64.5,2.08.15.03.31.03.47.01h3.01"/>
        </g>
      </g>
    </g>
  </g>
</svg>