<?xml version="1.0" encoding="UTF-8"?>
<svg xmlns="http://www.w3.org/2000/svg" xmlns:xlink="http://www.w3.org/1999/xlink" version="1.1" viewBox="0 0 70.05 87.98">
  <defs>
    <style>
      .cls-1 {
        fill: none;
      }

      .cls-2 {
        clip-path: url(#clippath);
      }
    </style>
    <clipPath id="clippath">
      <rect class="cls-1" x="20.4" y="3.92" width="26" height="80.13"/>
    </clipPath>
  </defs>
  <!-- Generator: Adobe Illustrator 28.6.0, SVG Export Plug-In . SVG Version: 1.2.0 Build 709)  -->
  <g>
    <g id="Ebene_1">
      <g id="Gruppe_1067">
        <g class="cls-2">
          <g id="Gruppe_1066">
            <path id="Pfad_8360" d="M33.88,84.03c-2.76,0-4.98.01-7.2,0-3.7-.03-5.77-1.96-6.18-5.66-.28-3.16.08-6.35,1.04-9.37,1.39-4.22,2.12-8.62,2.19-13.05-.2-3.88-.79-7.74-1.77-11.5-.39-1.74-.58-3.52-.58-5.3.02-4.25.06-8.51-.01-12.76-.17-3.43,1.2-6.76,3.74-9.07,1.77-1.47,3.12-3.39,3.9-5.56.17-.55.44-1.1-.32-1.49-.21-.15-.34-.38-.37-.64-.19-1.51-.19-3.04,0-4.56.1-.69.73-1.19,1.42-1.11,2.4-.02,4.8-.04,7.2,0,1.07.02,1.57.57,1.6,1.67.03,1.13.01,2.25,0,3.38,0,.4,0,.89-.34,1.11-.94.61-.54,1.33-.28,2.06.65,1.67,1.67,3.16,2.99,4.37,1.81,1.8,3.57,3.65,4.12,6.28.22.99.34,2.01.35,3.03,0,4.58,0,9.16,0,13.75,0,3.31-.99,6.45-1.6,9.65-1.21,5.87-.9,11.95.89,17.66.95,2.87,1.51,5.85,1.69,8.86.16,1.75-.11,3.5-.78,5.12-.7,1.74-2.33,2.92-4.2,3.04-2.68.25-5.38.02-7.52.1M33.39,40.01c-3.27,0-6.54.02-9.81-.01-.72,0-1,.21-.87.93.19,1.15.25,2.32.55,3.44,2.21,8.31,2.39,16.53-.43,24.78-1.05,2.96-1.41,6.12-1.04,9.24.39,3.02,1.9,4.39,4.92,4.39,4.51,0,9.01.02,13.52,0,2.89-.01,4.41-1.42,4.78-4.3.35-3.45-.08-6.93-1.25-10.19-2.07-6.31-2.47-13.06-1.14-19.57.49-2.46,1.17-4.87,1.44-7.37.15-1.34.13-1.34-1.18-1.34h-9.49M33.42,38.75c3.23,0,6.47-.03,9.7.02.83.01,1.03-.25,1.02-1.05-.04-3.31-.04-6.61,0-9.92,0-.78-.15-1.08-1.01-1.08-6.51.04-13.01.04-19.52,0-.78,0-.97.25-.97,1,.03,3.34.04,6.69,0,10.03-.01.86.3,1.02,1.07,1.01,3.23-.04,6.47-.01,9.71-.01M33.38,25.48h9.49c1.35,0,1.34-.02,1.15-1.33-.29-2.11-1.29-4.05-2.83-5.52-2.19-2.12-4.2-4.34-4.88-7.44-.11-.51-.45-.49-.82-.49-1.31,0-2.62.04-3.92-.02-.7-.03-1.04.18-1.2.88-.33,1.42-.97,2.75-1.86,3.91-.88,1.11-1.84,2.15-2.88,3.12-1.53,1.48-2.52,3.42-2.84,5.52-.2,1.36-.22,1.36,1.11,1.36,3.16,0,6.32,0,9.48,0M33.36,9.46c1.02,0,2.03-.02,3.04,0,.63.02.94-.18.9-.87-.04-.87-.04-1.74,0-2.61.02-.62-.25-.82-.84-.82-2.03.02-4.06.02-6.09,0-.63,0-.94.17-.91.86.04.87.03,1.74,0,2.61-.02.61.23.84.84.82,1.01-.03,2.03,0,3.04,0"/>
          </g>
        </g>
      </g>
    </g>
  </g>
</svg>