<?xml version="1.0" encoding="UTF-8"?>
<svg xmlns="http://www.w3.org/2000/svg" xmlns:xlink="http://www.w3.org/1999/xlink" version="1.1" viewBox="0 0 70.05 87.98">
  <defs>
    <style>
      .cls-1 {
        fill: none;
      }

      .cls-2 {
        clip-path: url(#clippath);
      }
    </style>
    <clipPath id="clippath">
      <rect class="cls-1" x="17.24" y="18.52" width="31.36" height="55"/>
    </clipPath>
  </defs>
  <!-- Generator: Adobe Illustrator 28.6.0, SVG Export Plug-In . SVG Version: 1.2.0 Build 709)  -->
  <g>
    <g id="Ebene_1">
      <g class="cls-2">
        <g id="Gruppe_1047">
          <path id="Pfad_8341" d="M33.04,18.54c3.45,0,6.9.03,10.34-.02,1.57-.02,2.65.33,2.29,2.21-.13.91.13,1.83.73,2.53,3.22,4.34,1.99,9.33,1.88,14.06-.05,2.14-2.22,3.74-3.51,5.52-.87,1.21-1.27,2.18-.19,3.43,2.44,2.82,2.28,6.37,2.63,9.77.37,3.59.74,7.18,1.16,10.77.23,1.94-.64,3.11-2.1,4.35-2.45,2.08-5.2,2.4-8.18,2.35-4.59-.09-9.19-.07-13.78-.15-2.86-.05-4.6-2.22-6.56-3.79-.96-.77-.35-2.14.13-3.22,1.66-3.75,3.27-7.52,4.97-11.25.57-1.18.65-2.53.21-3.77-1.58-5-2.99-10.06-4.54-15.07-1.42-4.56-1.79-8.98,1.12-13.16.43-.5.67-1.14.66-1.81-.69-2.75.95-2.79,2.88-2.77,3.28.05,6.57.01,9.85.01M24.36,55.95c-1.83,4.17-3.39,7.76-4.97,11.33-.25.57-.45,1.28.12,1.55,1.74.82,2.88,2.79,4.98,2.81,5.66.06,11.33.09,16.99-.01,3.01-.24,5.25-2.87,5.01-5.87,0,0,0,0,0,0-.45-4.49-1.03-8.97-1.37-13.47-.23-1.79-.9-3.49-1.95-4.95-.43-.71-.82-.99-1.43-.18-.37.49-.89.86-1.44.31-.5-.51-.15-1.06.19-1.55,1.61-2.28,3.17-4.6,4.85-6.82.9-1.16,1.37-2.61,1.32-4.08,0-4.26.03-8.36-2.33-12.31-1.04-1.76-1.7-2.45-3.66-2.39-4.26.13-8.55.22-12.8-.01-3.4-.19-5.65.14-7.14,4.05-1.38,3.62-1.84,6.89-.8,10.44,2.69,9.21,5.49,18.39,8.19,27.6.22.76,1.12,1.94-.1,2.34-1.46.47-1.27-1.15-1.56-1.94-.74-2.05-1.31-4.16-2.13-6.83"/>
          <path id="Pfad_8342" d="M45.25,33.06c.88,5.31-3.53,8-5.7,11.77-.21.37-.68.49-1.04.28-.09-.05-.16-.12-.22-.19-.41-.44-.18-.93.1-1.34.84-1.31,1.75-2.57,2.72-3.79,1.99-2.1,2.92-4.99,2.51-7.85-.07-.73-.06-1.47.02-2.21.03-.53.3-.94.91-.9.5.04.68.45.69.86.04,1.14.01,2.29.01,3.37"/>
          <path id="Pfad_8343" d="M45.14,65.59c.08,2.04-1.18,3.9-3.11,4.57-.31.11-.66.03-.88-.22-.32-.3-.35-.81-.05-1.13.05-.06.12-.11.19-.15,3.22-1.65,1.74-4.43,1.7-6.85,0-.49-.16-.97-.18-1.46-.03-.76-.48-1.85.74-1.95,1.01-.09.92.94,1,1.64.22,1.95.41,3.9.59,5.54"/>
          <path id="Pfad_8344" d="M41.78,21.73c1.05.28.99,1.26,1.32,1.94.33.68,1.01,1.38.43,2.24-.14.18-.37.28-.6.27-1.01-.3-1.15-1.3-1.51-2.07-.3-.63-.74-1.33-.21-2.05.12-.17.4-.23.58-.32"/>
          <path id="Pfad_8345" d="M43.77,52.74c.04.85.35,1.8-.68,1.91-1.06.11-1.01-.92-.97-1.59.06-1.01-1.03-2.72.54-2.87,1.62-.16.64,1.79,1.11,2.55"/>
        </g>
      </g>
    </g>
  </g>
</svg>