<?xml version="1.0" encoding="UTF-8"?>
<svg xmlns="http://www.w3.org/2000/svg" xmlns:xlink="http://www.w3.org/1999/xlink" version="1.1" viewBox="0 0 70.05 87.98">
  <defs>
    <style>
      .cls-1 {
        fill: none;
      }

      .cls-2 {
        clip-path: url(#clippath);
      }
    </style>
    <clipPath id="clippath">
      <rect class="cls-1" x="22.89" y="3.99" width="24.27" height="80"/>
    </clipPath>
  </defs>
  <!-- Generator: Adobe Illustrator 28.6.0, SVG Export Plug-In . SVG Version: 1.2.0 Build 709)  -->
  <g>
    <g id="Ebene_1">
      <g class="cls-2">
        <g id="Gruppe_1072">
          <path id="Pfad_8363" d="M27.77,26.64c-.73,2.88-1.37,5.79-2.22,8.63-.47,1.58.14,2.04,1.52,2.16,5.71.63,11.47.8,17.21.51,1.67-.12,2.08-.74,1.89-2.44-.44-4.01-2.05-7.63-3.39-11.33-.74-2.04-.2-4.84-1.9-6.08-1.67-1.22-4.26-.09-6.39-.43-2.68-.43-4.16.36-4.41,3.19-.19.86-.48,1.68-.88,2.47.08-3.33,1.76-6.38,1.68-9.76-.05-2.14.75-4.28-.26-6.44-.32-.87.12-1.83.99-2.15.02,0,.05-.02.07-.02-.36,1.41-.31,1.23.52,1.48,2.59.79,5.34-.22,7.9.82.99.4.85-.48.71-.95-.26-.87-1.01-1.12-1.85-1.3-2.41-.63-4.95-.62-7.36.04,1.73-1.36,7.62-1.39,9.15-.03.67.62,1,1.53.88,2.44-1.18,6.88.54,13.3,2.83,19.65,2.4,6.65,3.21,13.77,2.38,20.79-.63,5.71-.77,11.46-1.51,17.17-.5,3.87.66,7.72,1.18,11.57.73,5.42-.92,7.47-6.29,7.39-4.22-.06-8.43-.13-12.65-.18-3.51-.04-5.18-1.99-4.57-5.51.35-1.99.85-3.96,1.34-5.92,1.39-5.5.03-10.95-.21-16.43-.4-9.15-.52-18.31,2.65-27.13.27-.75.65-1.46.97-2.19M45.59,81.41c.54-2.7.5-5.48-.1-8.16-.68-3.01-.88-6.1-.6-9.17.48-3.77.66-7.58,1.12-11.36.17-1.41-.29-1.65-1.55-1.6-5.75.21-11.51.11-17.26-.29-3.09-.2-2.94-.14-2.71,3.05.47,6.42,2.04,12.83.34,19.3-.52,1.87-.94,3.77-1.27,5.69-.21,1.38-.15,2.82,1.51,3.49.65-.97.11-2.03,1.01-2.88-.05.8-.11,1.42-.11,2.04,0,.88.56,1.67,1.3,1.16,1.23-.86,3.03,1.33,3.88-.88.11-.29.28.08.36.27.63,1.37,1.68.95,2.51.38.39-.26.32-.42.75-.03.87.77,1.83,1.07,2.28-.49.16-.54.14-.37.44-.01,1.38,1.63,1.8,1.52,2.59-.52.54.44-.26,1.73,1.19,1.68s1.05-1.12,1.26-1.92c.61.42.11,1.93,1.37,1.53s.7-1.75,1.07-2.75c.18.44.32.77.61,1.49M35.18,50.26v.12c3.16,0,6.32.02,9.48-.01.8,0,1.65-.02,1.68-1.24.23-2.99.29-5.99.19-8.99-.11-1.25-.58-1.61-1.8-1.59-6.08.19-12.16.01-18.22-.52-1.36-.15-1.67.3-1.69,1.55-.05,2.83-.16,5.67-.38,8.5-.12,1.57.38,2.24,2,2.21,2.92-.06,5.83-.02,8.75-.02M36.84,17.15q4.38-.02,4.02-4.46c-.02-.24-.04-.48-.07-.72q-.5-4.16-4.65-4.33-4.37-.19-4.53,4.24-.2,5.3,5.23,5.27"/>
          <path id="Pfad_8364" d="M30.63,44.11h10.67v.16h-10.61l-.06-.16"/>
          <path id="Pfad_8365" d="M33.48,41.27c2.12-.33,4.24-.89,6.4,0h-6.4Z"/>
          <path id="Pfad_8366" d="M31.86,46.78c3.07-.6,6.22-.6,9.28,0h-9.28Z"/>
        </g>
      </g>
    </g>
  </g>
</svg>