<?xml version="1.0" encoding="UTF-8"?>
<svg xmlns="http://www.w3.org/2000/svg" xmlns:xlink="http://www.w3.org/1999/xlink" version="1.1" viewBox="0 0 70.05 87.98">
  <defs>
    <style>
      .cls-1 {
        fill: none;
      }

      .cls-2 {
        clip-path: url(#clippath);
      }
    </style>
    <clipPath id="clippath">
      <rect class="cls-1" x="18.31" y="13.49" width="33.44" height="61"/>
    </clipPath>
  </defs>
  <!-- Generator: Adobe Illustrator 28.6.0, SVG Export Plug-In . SVG Version: 1.2.0 Build 709)  -->
  <g>
    <g id="Ebene_1">
      <g class="cls-2">
        <g id="Gruppe_1056">
          <path id="Pfad_8354" d="M24.43,74.49c-.42-.31-.67-.78-.7-1.3-1.43-9.39-2.88-18.79-4.32-28.18-.1-.98-.35-1.94-.76-2.84-.69-1.42-.26-3.13,1.02-4.06.28-.22.47-.52.55-.87,1.29-5.52,5.8-9.71,11.4-10.59,1.7-.32,3.46-.29,5.15.09.4.08.55,0,.69-.37,1.05-2.57,2.14-5.12,3.19-7.69.19-.52.57-.95,1.07-1.2,2.3-1.21,4.58-2.46,6.87-3.69.97-.52,1.35-.4,1.87.54.34.63.69,1.25,1.03,1.88.5.92.36,1.37-.58,1.87-1.89,1.02-3.77,2.03-5.66,3.04-.27.13-.48.35-.59.62-.9,2.2-1.82,4.4-2.74,6.59-.15.23-.08.54.15.69.02.01.04.02.06.03,2.8,1.94,4.79,4.85,5.58,8.16.07.31.26.58.52.75,1.57,1.04,2,3.15.96,4.72,0,0,0,0,0,.01-.32.77-.5,1.59-.51,2.42-1.04,6.64-2.07,13.29-3.08,19.93-.42,2.71-.83,5.41-1.23,8.12-.02.52-.29,1-.71,1.3h-19.18ZM33.96,39.48h-12.33c-.66-.03-1.23.44-1.34,1.09-.16.52.13,1.07.65,1.23.11.03.23.05.35.04h14c.75,0,1.51-.02,2.26,0,.55-.02,1.01.41,1.03.95,0,0,0,0,0,0,0,.54-.43.97-.96.98,0,0-.02,0-.03,0-.42.03-.83.01-1.25.01-4.85,0-9.69,0-14.54,0-.5,0-.65.1-.53.63.18.79.26,1.6.39,2.41,1.29,8.37,2.57,16.74,3.85,25.12.07.46.23.61.71.61,5.16-.02,10.33-.02,15.49,0,.6,0,.75-.2.84-.74.79-5.28,1.6-10.55,2.43-15.82.61-3.92,1.22-7.84,1.83-11.76.06-.36-.07-.45-.4-.44-.67.02-1.35.01-2.02,0-.78-.01-1.24-.39-1.22-1,.02-.58.47-.94,1.21-.95.87,0,1.75,0,2.62,0,.2,0,.4.03.52-.19.29-.42.33-.96.11-1.41-.21-.48-.69-.79-1.22-.77-4.15.02-8.3.01-12.45.01M45.69,37.53c.01-.05.02-.11.01-.17-.03-.13-.07-.27-.11-.4-.85-2.76-2.67-5.12-5.11-6.65-1.06-.68-1.14-.92-.65-2.09,1.03-2.47,2.07-4.94,3.08-7.41.21-.56.62-1.02,1.15-1.28,1.67-.86,3.32-1.78,4.99-2.66.34-.18.39-.32.2-.66s-.34-.39-.68-.2c-1.86,1.02-3.73,2.03-5.6,3.02-.3.15-.53.41-.65.72-1.12,2.71-2.24,5.42-3.38,8.13-.47,1.12-.72,1.25-1.92.93-6.27-1.64-12.73,1.92-14.7,8.09-.15.5-.15.66.46.66,7.45-.02,14.89-.03,22.34-.01h.58Z"/>
        </g>
      </g>
    </g>
  </g>
</svg>