<?xml version="1.0" encoding="UTF-8"?>
<svg xmlns="http://www.w3.org/2000/svg" xmlns:xlink="http://www.w3.org/1999/xlink" version="1.1" viewBox="0 0 70.05 87.98">
  <defs>
    <style>
      .cls-1 {
        fill: none;
      }

      .cls-2 {
        clip-path: url(#clippath);
      }
    </style>
    <clipPath id="clippath">
      <rect class="cls-1" x="21.97" y="18.48" width="28.51" height="56"/>
    </clipPath>
  </defs>
  <!-- Generator: Adobe Illustrator 28.6.0, SVG Export Plug-In . SVG Version: 1.2.0 Build 709)  -->
  <g>
    <g id="Ebene_1">
      <g class="cls-2">
        <g id="Gruppe_1044">
          <path id="Pfad_8337" d="M21.99,47.65c0-6,.04-12-.02-18-.15-1.67.3-3.33,1.27-4.7.41-.42.66-.97.7-1.56-.51-3.13,1.74-3.59,3.88-4.04,5.64-1.19,11.48-1.16,17.11.09,1.93.43,4.08.94,3.43,3.83-.03.25.05.5.21.7,2.53,3,1.81,6.61,1.82,10.05.04,10.08.01,20.16.01,30.24,0,4.8-1.24,6.77-5.64,8.51-5.47,2.24-11.59,2.26-17.07.06-4.35-1.69-5.7-3.77-5.7-8.45v-16.74M23.79,47.25c0,6.17.03,12.35-.02,18.52-.11,1.41.57,2.77,1.76,3.54,5.77,4.26,11.97,4.08,18.3,1.89,3.88-1.35,4.74-2.92,4.74-7.1v-28.78c0-2.17.04-4.34-.01-6.51-.08-3.31-1.69-4.57-4.85-4.03-5.03.86-10.17.85-15.2,0-2.86-.48-4.49.72-4.7,3.7-.04.58-.01,1.17-.01,1.75,0,5.67,0,11.35,0,17.02M26.16,21.95c6.53,2.15,13.58,2.14,20.1-.02-6.54-2.05-13.56-2.04-20.1.02"/>
          <path id="Pfad_8338" d="M47.21,51.51c0,4.33-.21,8.68.08,13,.16,2.45-1.02,3.63-2.74,4.76-.44.29-.87.62-1.33.2-.38-.31-.44-.88-.13-1.27.08-.1.18-.18.29-.23,2.73-1.48,2.08-4.02,2.08-6.34.02-7.92.02-15.84,0-23.76-.02-.17-.02-.33,0-.5.17-.9-.5-2.52.8-2.51,1.54,0,.87,1.68.91,2.64.1,2.33.03,4.67.03,7v7"/>
          <path id="Pfad_8339" d="M47.2,28.7c-.08.59.17,1.45-.67,1.65-.95.22-1-.6-1.06-1.27-.02-.17-.05-.33-.06-.5-.05-.84-1.38-1.47-.42-2.44.27-.16.61-.17.89-.03.84.6,1.33,1.56,1.33,2.59"/>
          <path id="Pfad_8340" d="M40.03,22.26c-2.73.95-5.72.79-8.34-.43,2.77-1.18,4.92-1.09,8.34.43"/>
        </g>
      </g>
    </g>
  </g>
</svg>