<?xml version="1.0" encoding="UTF-8"?>
<svg xmlns="http://www.w3.org/2000/svg" xmlns:xlink="http://www.w3.org/1999/xlink" version="1.1" viewBox="0 0 70.05 87.98">
  <defs>
    <style>
      .cls-1 {
        fill: none;
      }

      .cls-2 {
        clip-path: url(#clippath);
      }
    </style>
    <clipPath id="clippath">
      <rect class="cls-1" x="23.68" y="3.99" width="22.69" height="80"/>
    </clipPath>
  </defs>
  <!-- Generator: Adobe Illustrator 28.6.0, SVG Export Plug-In . SVG Version: 1.2.0 Build 709)  -->
  <g>
    <g id="Ebene_1">
      <g class="cls-2">
        <g id="Gruppe_1074">
          <path id="Pfad_8367" d="M35.13,83.98c-3.42.08-6.82-.56-9.98-1.88-.31-.1-.55-.37-.6-.69-.84-3.62-.6-7.4.68-10.89.8-2.41.96-4.98.47-7.47-.71-4.55-1.34-9.1-2-13.66-.02-.1-.02-.2,0-.3.26-.77.33-1.6.21-2.41-.23-3.79.15-7.6,1.13-11.27.02-.08.05-.17.07-.25.11-.45.47-.86.03-1.38-.24-.29-.11-.76,0-1.16,1.9-7.06,3.8-14.13,5.69-21.19.12-.45.09-.73-.34-.92-.45-.14-.7-.63-.56-1.08.01-.04.03-.08.05-.12.21-.75.33-1.52.48-2.28.03-.16.16-.4-.2-.38-.18,0-.16-.15-.15-.27,0-.61.09-1.21.27-1.78.08-.27.33-.45.61-.44,2.35-.19,4.7-.22,7.05-.09.05,0,.1,0,.16,0,1.83.12,1.81.59,1.95,2.27.02.19-.08.25-.25.23-.32-.03-.32.15-.27.39.15.87.27,1.74.44,2.61.09.3-.04.62-.33.77-.75.5-.74.51-.5,1.39,1.91,7.08,3.82,14.16,5.73,21.24.08.26.07.55-.02.81-.21.59-.2,1.24.01,1.83.87,2.85,1.29,5.82,1.24,8.81.01,1.71.04,3.42.14,5.13.04,1.96-.06,3.91-.3,5.85-.31,3.44-1.01,6.81-1.64,10.19-.19,1.29-.02,2.61.49,3.81,1.4,3.89,1.59,8.11.55,12.11-.05.29-.26.53-.53.62-2.08.88-4.28,1.43-6.53,1.61-1.08.11-2.17.16-3.26.24M26.45,76.24c.05-.16.08-.33.15-.48,1.09-2.8,1.53-5.82,1.29-8.81-.16-2.19-.4-4.38-.61-6.56-.29-3.08-.59-6.17-.89-9.25-.04-.43.06-.97-.21-1.25-.29-.31-.85-.16-1.29-.26h-.05c-.31-.08-.47-.06-.4.36.2,1.11.35,2.22.5,3.34.43,3.33,1.15,6.61,1.56,9.95.33,2.04.27,4.12-.16,6.14-.31,1.24-.61,2.49-.99,3.71-.79,2.58-.85,5.33-.18,7.94.05.32.3.58.62.65,2.36.8,4.82,1.29,7.31,1.47,3.81.36,7.65-.16,11.22-1.51.31-.09.54-.36.59-.68.63-3.04.63-6.19-.01-9.23-.24-1.12-.75-2.16-.97-3.28-.27-1.79-.16-3.61.3-5.36.9-4.2,1.43-8.47,1.57-12.76.02-.79.03-.79-.73-.7-.26.05-.51.07-.77.08-.47-.01-.59.18-.59.64,0,4.38-.34,8.76-1.02,13.08-.65,3.51-.65,7.12,0,10.63.1.46.15.94.22,1.41l-.14.02c-.19-.79-.41-1.57-.58-2.36-.54-2.06-.76-4.2-.63-6.33.27-2.76.64-5.5.95-8.25.32-2.8.53-5.62.58-8.44,0-.33-.07-.47-.42-.45-.92.06-1.83.1-2.75.13-.27,0-.38.1-.35.37.02.15.01.31.02.47.24,6.04.04,12.09-.61,18.1-.26,1.68-.27,3.39-.03,5.07.13.63.22,1.26.32,1.89-.13-.13-.21-.29-.25-.46-.67-2.66-.85-5.42-.54-8.14.19-2.87.47-5.73.53-8.6.06-2.72,0-5.44-.1-8.15-.02-.39-.12-.53-.54-.53-.97.01-1.94-.01-2.91-.07-.49-.03-.6.13-.58.61.13,3.51.07,7.03-.16,10.54-.16,2.8-.57,5.58-.59,8.39,0,.05.02.15-.12.13,0-.17-.02-.34-.02-.51-.04-3.46.08-6.92.13-10.39.04-2.72.09-5.44.13-8.15,0-.2.11-.47-.27-.5-.83-.07-1.65-.15-2.48-.24-.31-.03-.34.1-.32.36.27,4.96.27,9.94.01,14.9-.12,3.3-.34,6.61-.14,9.91.03.41,0,.83,0,1.24-.2-.75-.34-1.52-.43-2.3-.3-4.29-.27-8.59.07-12.88.2-3.6.11-7.2-.27-10.78-.03-.24-.09-.38-.37-.38-.9,0-1.8,0-2.7-.02-.3,0-.37.12-.33.42.11.84.19,1.69.26,2.53.34,3.67.67,7.34,1,11.01.33,2.33.35,4.7.05,7.04-.29,1.94-.93,3.81-1.88,5.53M24.41,44.82c.02,1.26.11,2.52.27,3.78.04.3.16.42.45.44.78.05,1.55.14,2.33.15,5.81.04,11.63,0,17.44-.16.31,0,.44-.1.46-.4.06-.95.17-1.9.2-2.85.09-3.67-.37-7.34-1.38-10.87-.07-.27-.16-.32-.42-.24-.86.25-1.74.44-2.63.56-1.49.18-3,.26-4.5.23-2.23.04-4.46.01-6.69-.04-1.08-.11-2.15-.32-3.2-.61-.75-.16-.77-.16-.99.59-.87,3.06-1.32,6.23-1.34,9.42M39.32,23.84c.05.11.1.22.14.33,1.11,2.97,2.02,6,2.88,9.04q.31,1.1,1.38.67.65-.26.44-.94c-2.12-6.93-4.03-13.92-5.61-20.99-.17-.76-.17-.75-.96-.65-1.8.27-3.63.26-5.43-.05-.45-.08-.59.06-.68.48-1.51,6.88-3.4,13.66-5.5,20.38-.47,1.5-.47,1.5,1.05,2.02.31.11.4.03.44-.25.12-.68.23-1.36.38-2.04,1.01-3.97,2.24-7.89,3.69-11.72.04-.07.09-.14.15-.2-.12,1.41-.43,2.8-.91,4.13-1.2,3.23-2.11,6.56-2.72,9.94-.06.35-.01.49.36.55,1.35.2,2.73.22,4.09.05.24-.02.26-.15.24-.35-.18-2.17-.16-4.36.04-6.53.09-1.16.25-2.32.47-3.46.12.68.17,1.37.15,2.07,0,2.61,0,5.23,0,7.84,0,.3.05.49.4.53.79.11,1.59.11,2.38,0,.3-.05.4-.2.41-.49.03-.8.09-1.59.14-2.38.1-1.72.21-3.43.32-5.19.12.1.18.26.18.42.12,1.1.22,2.2.23,3.31.02,1.26-.05,2.53-.13,3.79-.01.2-.09.41.24.47,1.32.3,2.69.3,4.02,0,.31-.08.4-.22.33-.51-.13-.59-.24-1.19-.37-1.78-.64-2.85-1.54-5.64-2.23-8.5M32.15,6.1c-.12.45-.35.62-.74.57-.24-.04-.26.16-.29.34-.16.78-.31,1.56-.5,2.33-.1.23,0,.5.24.6.03.01.06.02.08.03,1.23.52,2.53.84,3.87.93,1.49.1,2.99-.23,4.3-.94.19-.1.35-.17.27-.47-.22-.89-.4-1.79-.61-2.68-.03-.29-.15-.55-.35-.76-.08.62-.38.61-.76.31-.13-.12-.33-.13-.47-.03-.4.24-.84.48-.99-.29-.7.76-.84.76-1.25,0-.14.14-.3.28-.46.41-.25.17-.56.24-.73-.05s-.3-.16-.48-.06c-.31.27-.78.23-1.05-.09-.04-.05-.07-.1-.1-.15"/>
        </g>
      </g>
    </g>
  </g>
</svg>