<?xml version="1.0" encoding="UTF-8"?>
<svg xmlns="http://www.w3.org/2000/svg" xmlns:xlink="http://www.w3.org/1999/xlink" version="1.1" viewBox="0 0 70.05 87.98">
  <defs>
    <style>
      .cls-1 {
        fill: none;
      }

      .cls-2 {
        clip-path: url(#clippath);
      }
    </style>
    <clipPath id="clippath">
      <rect class="cls-1" x="17.45" y="4.87" width="28.95" height="80"/>
    </clipPath>
  </defs>
  <!-- Generator: Adobe Illustrator 28.6.0, SVG Export Plug-In . SVG Version: 1.2.0 Build 709)  -->
  <g>
    <g id="Ebene_1">
      <g class="cls-2">
        <g id="Gruppe_1062">
          <path id="Pfad_8358" d="M31.96,84.87h-8.1c-1.59.02-3.09-.7-4.07-1.95-.84-1.09-1.41-2.38-1.65-3.73-.36-1.79-.51-3.61-.43-5.43.1-3.02.46-6.02,1.07-8.97.62-3.15,1.43-6.25,2.44-9.3.62-1.82,1.01-3.71,1.18-5.62.12-1.37-.15-2.74-.77-3.97-.64-1.23-1.34-2.43-2.1-3.59-.84-1.26-1.44-2.67-1.77-4.15-.33-1.65-.4-3.33-.21-5,.48-3.87,1.69-7.61,3.56-11.03,1.66-3.2,3.74-6.16,6.19-8.8.08-.08.12-.19.12-.31,0-.59,0-1.17,0-1.76.02-.12-.06-.24-.18-.27-.63-.22-1.05-.83-1.03-1.5-.01-1-.01-2,0-3.01,0-.87.7-1.59,1.57-1.59.01,0,.02,0,.04,0h8.22c.85-.03,1.56.64,1.59,1.48,0,0,0,.01,0,.02.03,1.06.02,2.13,0,3.19,0,.63-.41,1.19-1,1.4-.12.03-.19.14-.18.26,0,.6,0,1.2,0,1.81,0,.12.06.24.15.32,3.05,3.31,5.52,7.11,7.32,11.23,1.11,2.46,1.88,5.07,2.28,7.74.37,2.29.24,4.64-.39,6.88-.41,1.19-.97,2.32-1.67,3.37-.59.95-1.17,1.91-1.71,2.89-.88,1.58-1.2,3.41-.9,5.19.22,1.51.55,3.01.98,4.47.37,1.22.81,2.43,1.15,3.66,1.07,3.8,1.84,7.69,2.28,11.61.25,2.11.3,4.24.15,6.35-.08,1.68-.47,3.32-1.16,4.85-.63,1.46-1.86,2.58-3.38,3.06-.45.14-.92.21-1.39.21-2.73,0-5.46,0-8.19,0h0ZM31.94,20.6h-8.29c-.14-.02-.27.05-.34.17-1.52,2.5-2.73,5.18-3.6,7.98-.79,2.43-1.12,4.98-.95,7.53.12,1.68.64,3.3,1.51,4.74.6.96,1.19,1.93,1.77,2.91.57.91,1.03,1.88,1.35,2.91.33,1.21.4,2.47.23,3.72-.02.16.01.21.18.21,5.41,0,10.82,0,16.23,0,.18,0,.22-.05.19-.22-.29-2.06.13-4.16,1.18-5.95.67-1.17,1.37-2.33,2.09-3.47,1.03-1.67,1.58-3.59,1.62-5.55.05-1.85-.16-3.71-.63-5.5-.85-3.26-2.18-6.38-3.93-9.25-.07-.14-.22-.23-.38-.21-2.75,0-5.49,0-8.24,0M31.91,69.6h12.36c.2,0,.27-.03.24-.25-.49-3.57-1.23-7.11-2.21-10.58-.35-1.28-.83-2.52-1.18-3.8-.11-.39-.02-.33-.44-.33-5.84,0-11.68,0-17.52,0-.06,0-.12,0-.18,0-.11-.01-.17.04-.19.15-.18.69-.39,1.36-.63,2.03-1.28,4.05-2.21,8.21-2.78,12.42q-.05.36.33.36h12.22M31.95,73.49h-12.68c-.14,0-.26-.02-.27.2-.07,1.64.05,3.29.33,4.91.18,1.17.62,2.29,1.28,3.27.74,1.11,2,1.75,3.33,1.72,5.43,0,10.87-.01,16.3,0,.13,0,.26,0,.39-.03.99-.16,1.88-.69,2.48-1.49.62-.83,1.05-1.77,1.27-2.78.41-1.81.57-3.66.49-5.52,0-.24-.08-.29-.3-.29-4.21,0-8.41,0-12.62,0M31.94,19.31h7.4c.07,0,.17.04.22-.03s-.05-.14-.09-.2c-1.2-1.81-2.56-3.52-4.05-5.1-.17-.17-.26-.4-.25-.64,0-.67,0-1.34,0-2.01,0-.18-.04-.24-.23-.24-2,0-4,0-5.99,0-.2,0-.24.07-.24.25,0,.67,0,1.34,0,2.01.01.22-.07.43-.22.59-1.5,1.59-2.87,3.31-4.08,5.13-.04.06-.13.13-.1.2.04.09.15.04.23.04h7.4M31.9,72.19h12.43c.09,0,.19,0,.28,0,.14.01.19-.04.17-.18-.03-.26-.05-.52-.07-.78-.03-.39,0-.33-.36-.33h-24.83c-.06,0-.12,0-.18,0-.12-.01-.16.05-.17.16-.02.28-.05.55-.07.83-.02.31-.02.31.28.31h12.52M31.9,9.79h4c.36,0,.44-.08.44-.43v-2.75c0-.37-.07-.44-.45-.44h-7.94c-.38,0-.45.08-.45.47v2.66c0,.43.06.5.49.5h3.91M31.91,53.35h8.65c.11,0,.15-.03.12-.15-.08-.29-.14-.59-.18-.88-.03-.23-.13-.28-.34-.27-5.48,0-10.97,0-16.45,0-.05,0-.09,0-.14,0-.13-.02-.18.05-.2.16-.06.29-.11.59-.2.88-.06.22.01.26.22.26,2.84,0,5.68,0,8.52,0"/>
        </g>
      </g>
    </g>
  </g>
</svg>