<?xml version="1.0" encoding="UTF-8"?>
<svg xmlns="http://www.w3.org/2000/svg" xmlns:xlink="http://www.w3.org/1999/xlink" version="1.1" viewBox="0 0 70.05 87.98">
  <defs>
    <style>
      .cls-1 {
        fill: none;
      }

      .cls-2 {
        clip-path: url(#clippath);
      }
    </style>
    <clipPath id="clippath">
      <rect class="cls-1" x="18.67" y="18.07" width="31" height="56"/>
    </clipPath>
  </defs>
  <!-- Generator: Adobe Illustrator 28.6.0, SVG Export Plug-In . SVG Version: 1.2.0 Build 709)  -->
  <g>
    <g id="Ebene_1">
      <g class="cls-2">
        <g id="Gruppe_1042">
          <path id="Pfad_8334" d="M50.12,47.8c0,6.35.01,12.7,0,19.05-.25,3.65-3.07,6.6-6.71,7-6.01.31-12.03.31-18.04,0-3.26-.17-6.66-3.6-6.67-6.84-.03-12.87,0-25.73-.03-38.6.09-1.5.57-2.96,1.39-4.22.75-1.37,1.74-2.64,1.4-4.41-.21-1.11.5-1.7,1.63-1.7,7.6,0,15.2,0,22.81.01,1.14,0,1.76.7,1.53,1.79-.24,1.08.01,2.2.69,3.07,1.83,2.51,2.11,5.3,2.04,8.31-.13,5.51-.04,11.03-.04,16.54M20.5,47.67v18.55c.07,3.15,2.56,5.72,5.71,5.88,5.43.05,10.86.05,16.29,0,3.26-.07,5.87-2.72,5.89-5.98.01-10.36-.04-20.72.02-31.08.03-4.34.38-8.7-2.46-12.47-.2-.27-.32-.59-.34-.93-.04-1.59-.98-1.79-2.33-1.78-5.26.06-10.53.11-15.79-.01-2.4-.06-3.63.34-4.91,2.94-1.58,3.38-2.3,7.1-2.09,10.83.06,4.68.01,9.36.01,14.04"/>
          <path id="Pfad_8335" d="M47.03,51.6c0,4.92,0,9.84,0,14.77,0,1.49-2.14,4.03-3.5,4.24-.33.08-.68-.07-.85-.37-.28-.43-.16-1,.27-1.28.02-.01.04-.02.06-.04,2.84-1.38,2.16-3.95,2.17-6.27.02-8.34.02-16.69,0-25.03,0-.58,0-1.17,0-1.75.01-.69.06-1.48.93-1.5.92-.02.9.81.9,1.47.01,3.09,0,6.17,0,9.26v6.51"/>
          <path id="Pfad_8336" d="M47.09,27.5c-.14.31-.34.6-.57.86-.29.25-.74.21-.99-.08-.03-.04-.06-.08-.09-.13-.82-1.43-1.6-2.88-2.36-4.34-.2-.39-.06-.87.32-1.09.22-.12.77-.08.87.07.96,1.53,1.86,3.1,2.8,4.7"/>
        </g>
      </g>
    </g>
  </g>
</svg>