<?xml version="1.0" encoding="UTF-8"?>
<svg xmlns="http://www.w3.org/2000/svg" xmlns:xlink="http://www.w3.org/1999/xlink" version="1.1" viewBox="0 0 70.05 87.98">
  <defs>
    <style>
      .cls-1 {
        fill: none;
      }

      .cls-2 {
        clip-path: url(#clippath);
      }
    </style>
    <clipPath id="clippath">
      <rect class="cls-1" x="17.75" y="12.54" width="34.55" height="61"/>
    </clipPath>
  </defs>
  <!-- Generator: Adobe Illustrator 28.6.0, SVG Export Plug-In . SVG Version: 1.2.0 Build 709)  -->
  <g>
    <g id="Ebene_1">
      <g class="cls-2">
        <g id="Gruppe_1054">
          <path id="Pfad_8353" d="M34.98,73.52c-2.56,0-5.12-.05-7.68.01-2.32.11-4.3-1.66-4.45-3.97-.8-6.55-1.55-13.11-2.32-19.66-.53-4.47-1.06-8.95-1.59-13.42-.04-.33-.07-.57-.5-.65-.44-.1-.73-.51-.69-.95,0-1.35,0-2.71,0-4.06-.04-.4.22-.77.6-.88.49-.12.41-.45.4-.77-.17-2.27,1.54-4.25,3.81-4.42.15-.01.29-.01.44,0,2.71,0,5.42-.02,8.13.02.44.06.85-.23.95-.65,1.43-3.48,2.88-6.95,4.33-10.42.04-.1.08-.19.12-.29.32-.74.83-1.02,1.42-.77s.76.82.45,1.56c-1.37,3.3-2.75,6.59-4.13,9.88q-.28.67.47.67h12.13c2.24-.18,4.21,1.49,4.39,3.73.02.22.02.44,0,.67,0,.41.01.7.51.84.35.14.56.5.52.87,0,1.33,0,2.67,0,4,.05.49-.29.93-.78,1.02-.36.07-.37.25-.4.51-.45,3.83-.9,7.65-1.36,11.47-.54,4.56-1.07,9.12-1.61,13.67-.31,2.63-.63,5.25-.92,7.88-.08,2.36-2.07,4.21-4.43,4.13-.05,0-.09,0-.14,0h-7.68M35.09,35.92h-2.29c-3.77,0-7.53,0-11.3-.01-.48,0-.64.09-.53.59.09.5.16,1,.19,1.51.58,4.93,1.16,9.87,1.75,14.8.11.88.12.87,1.03.86,3.24-.08,6.43-.91,9.3-2.41,4.42-2.25,9.22-3.65,14.15-4.15.37-.03.43-.2.47-.52.38-3.34.76-6.68,1.18-10.02.07-.55-.02-.67-.57-.67-4.47.02-8.93.01-13.39.01M35.02,71.49c2.65,0,5.29,0,7.93,0,1.02.1,1.94-.61,2.11-1.62.11-.49.19-1,.24-1.5.49-4.14.97-8.27,1.46-12.41.1-.86.12-.86-.73-.69-2.29.49-4.53,1.23-6.67,2.18-4.39,2-9.07,3.29-13.87,3.83-.5.04-1.17-.16-1.45.21-.3.39.01,1.02.07,1.54.23,2.08.47,4.16.74,6.24,0,1.24,1.02,2.25,2.27,2.24.09,0,.19,0,.28-.02h7.62M24.78,59.3c3.83-.3,7.6-1.2,11.15-2.66,3.55-1.42,7.03-3.03,10.87-3.54.35-.05.33-.28.35-.49.12-1.01.21-2.02.36-3.02.06-.42-.07-.44-.43-.4-3.98.41-7.86,1.51-11.47,3.24-3.8,1.83-7.68,3.34-11.99,3.28-.34,0-.36.15-.33.43.11.78.19,1.55.28,2.33.1.89.09.89,1.2.83M35.04,29.82h13.72c.2,0,.45.11.5-.29.32-1.17-.38-2.38-1.55-2.7-.27-.07-.55-.09-.82-.06-7.9,0-15.79,0-23.69,0-1.66,0-2.38.75-2.41,2.4-.01.53.14.66.66.66,4.53-.02,9.06-.01,13.59-.01M34.99,33.89h13.97c1.31,0,1.28,0,1.32-1.32.02-.58-.14-.73-.72-.73-9.46.02-18.92.02-28.38.01-1.41,0-1.38,0-1.41,1.42,0,.5.12.63.63.63,4.87-.02,9.73-.01,14.6-.01"/>
        </g>
      </g>
    </g>
  </g>
</svg>