<?xml version="1.0" encoding="UTF-8"?>
<svg xmlns="http://www.w3.org/2000/svg" xmlns:xlink="http://www.w3.org/1999/xlink" version="1.1" viewBox="22 27.5 29.05 29.28">
  <defs>
    <style>
      .cls-1 {
        fill: none;
      }

      .cls-2 {
        clip-path: url(#clippath);
      }
    </style>
    <clipPath id="clippath">
      <rect class="cls-1" x="22.03" y="27.61" width="29.15" height="29.04"/>
    </clipPath>
  </defs>
  <!-- Generator: Adobe Illustrator 28.6.0, SVG Export Plug-In . SVG Version: 1.2.0 Build 709)  -->
  <g>
    <g id="Ebene_1">
      <g id="Gruppe_1125">
        <g class="cls-2">
          <g id="Gruppe_1104">
            <path id="Pfad_8442" d="M36.59,56.65h-9.69c-.89,0-.95-.06-.95-.95,0-3.97-.02-7.95.01-11.92,0-.64-.17-.86-.82-.81-.79.05-1.58.01-2.37.01-.28,0-.58.05-.72-.28s.12-.52.31-.71c2.65-2.71,5.29-5.42,7.94-8.13l5.65-5.78c.6-.61.67-.62,1.28,0,4.5,4.6,9,9.2,13.49,13.81.22.22.56.43.39.81s-.55.27-.86.27c-.74,0-1.49.05-2.23-.01-.68-.06-.8.22-.8.83.02,3.9.01,7.81.01,11.71q0,1.15-1.17,1.15h-9.48M49.63,42.1c-.08-.12-.17-.24-.26-.36-4.14-4.24-8.28-8.49-12.42-12.73-.41-.42-.58-.11-.82.13-4.01,4.11-8.02,8.22-12.03,12.33-.15.16-.38.27-.42.63h1.8q1.35,0,1.35,1.32c0,3.84.02,7.67-.02,11.51,0,.73.21.88.9.87,5.93-.03,11.86-.03,17.78,0,.73,0,.89-.21.88-.9-.03-3.95-.02-7.9-.01-11.86,0-.88.06-.94.96-.94h2.3"/>
          </g>
        </g>
      </g>
    </g>
  </g>
</svg>