<?xml version="1.0" encoding="UTF-8"?>
<svg xmlns="http://www.w3.org/2000/svg" xmlns:xlink="http://www.w3.org/1999/xlink" version="1.1" viewBox="23 31 24.05 35.98">
  <defs>
    <style>
      .cls-1 {
        fill: none;
      }

      .cls-2 {
        clip-path: url(#clippath);
      }
    </style>
    <clipPath id="clippath">
      <rect class="cls-1" x="23.14" y="31.99" width="23.77" height="24"/>
    </clipPath>
  </defs>
  <!-- Generator: Adobe Illustrator 28.6.0, SVG Export Plug-In . SVG Version: 1.2.0 Build 709)  -->
  <g>
    <g id="Ebene_1">
      <g class="cls-2">
        <g id="Gruppe_913">
          <path id="Pfad_1035" d="M35.37,31.99c.25.03.51.06.76.1,3.79.62,6.35,4.2,5.73,7.99s-4.2,6.35-7.99,5.73c-1.75-.29-3.32-1.23-4.4-2.64-1.06-1.36-1.56-3.07-1.4-4.79.26-3.24,2.74-5.87,5.97-6.32.19-.03.39-.05.59-.07h.74ZM35.01,44.18c2.89,0,5.23-2.35,5.22-5.24,0-2.89-2.35-5.23-5.24-5.22-2.89,0-5.23,2.35-5.23,5.24,0,2.89,2.35,5.23,5.24,5.23"/>
          <path id="Pfad_1036" d="M23.14,55.08c.05-.43.14-.85.25-1.27.69-2.75,2.34-5.16,4.64-6.81.71-.52,1.48-.95,2.29-1.29.43-.21.94-.03,1.15.39s.03.94-.39,1.15c-.02.01-.04.02-.06.03-3.27,1.4-5.59,4.38-6.15,7.9-.03.46-.42.82-.88.81-.48-.02-.85-.42-.84-.9"/>
          <path id="Pfad_1037" d="M39.4,45.63c.13,0,.26.03.37.09,3.82,1.65,6.51,5.16,7.13,9.27.07.47-.25.91-.72.98-.45.08-.88-.23-.97-.68-.12-.76-.31-1.51-.59-2.23-.99-2.59-2.98-4.67-5.53-5.76-.38-.13-.62-.5-.59-.91.04-.45.43-.79.89-.77"/>
        </g>
      </g>
    </g>
  </g>
</svg>