<svg width="37" height="37" viewBox="0 0 37 37" fill="none" xmlns="http://www.w3.org/2000/svg">
<mask id="mask0_1_3" style="mask-type:luminance" maskUnits="userSpaceOnUse" x="0" y="0" width="37" height="37">
<path d="M36.03 0.129999H0.0299988V36.13H36.03V0.129999Z"/>
</mask>
<g mask="url(#mask0_1_3)">
<path d="M32.53 15.22C32.15 13.44 31.44 11.74 30.45 10.21L31.71 7.44L29.02 4.75L25.99 5.76C24.46 4.77 22.76 4.07 20.98 3.69L19.55 0.82H15.74L14.66 3.7C12.94 4.07 11.3 4.75 9.81999 5.69L6.97999 4.74L4.29 7.43L5.42999 9.93C4.33999 11.53 3.57999 13.32 3.16999 15.21L0.369995 16.61V20.42L3.15999 21.47C3.53999 23.29 4.24999 25.02 5.26999 26.57L4.29 29.48L6.97999 32.17L9.64999 30.96C11.19 31.97 12.91 32.69 14.72 33.07L15.74 35.8H19.55L20.9 33.09C22.79 32.7 24.58 31.95 26.18 30.88L29.02 32.17L31.71 29.48L30.64 26.26C31.55 24.79 32.2 23.17 32.55 21.47L35.34 20.42V16.61L32.54 15.21L32.53 15.22ZM17.84 29.74C11.53 29.74 6.40999 24.62 6.40999 18.31C6.40999 12 11.53 6.88 17.84 6.88C24.15 6.88 29.27 12 29.27 18.31C29.27 24.62 24.15 29.74 17.84 29.74Z" fill="black"/>
<path d="M32.53 15.22C32.15 13.44 31.44 11.74 30.45 10.21L31.71 7.44L29.02 4.75L25.99 5.76C24.46 4.77 22.76 4.07 20.98 3.69L19.55 0.82H15.74L14.66 3.7C12.94 4.07 11.3 4.75 9.81999 5.69L6.97999 4.74L4.29 7.43L5.42999 9.93C4.33999 11.53 3.57999 13.32 3.16999 15.21L0.369995 16.61V20.42L3.15999 21.47C3.53999 23.29 4.24999 25.02 5.26999 26.57L4.29 29.48L6.97999 32.17L9.64999 30.96C11.19 31.97 12.91 32.69 14.72 33.07L15.74 35.8H19.55L20.9 33.09C22.79 32.7 24.58 31.95 26.18 30.88L29.02 32.17L31.71 29.48L30.64 26.26C31.55 24.79 32.2 23.17 32.55 21.47L35.34 20.42V16.61L32.54 15.21L32.53 15.22ZM17.84 29.74C11.53 29.74 6.40999 24.62 6.40999 18.31C6.40999 12 11.53 6.88 17.84 6.88C24.15 6.88 29.27 12 29.27 18.31C29.27 24.62 24.15 29.74 17.84 29.74Z" fill="black"/>
</g>
</svg>
