<?xml version="1.0" encoding="UTF-8"?>
<svg xmlns="http://www.w3.org/2000/svg" xmlns:xlink="http://www.w3.org/1999/xlink" version="1.1" viewBox="15 32 40.05 27.98">
  <defs>
    <style>
      .cls-1 {
        fill: none;
      }

      .cls-2 {
        clip-path: url(#clippath);
      }
    </style>
    <clipPath id="clippath">
      <rect class="cls-1" x="13.06" y="21.99" width="43.93" height="44" transform="translate(-20.84 37.65) rotate(-45)"/>
    </clipPath>
  </defs>
  <!-- Generator: Adobe Illustrator 28.6.0, SVG Export Plug-In . SVG Version: 1.2.0 Build 709)  -->
  <g>
    <g id="Ebene_1">
      <g id="Gruppe_342">
        <g class="cls-2">
          <g id="Gruppe_341">
            <path id="Pfad_878" d="M54.52,55.61c-.11,0-.22-.03-.34-.03-12.76,0-25.51,0-38.27,0-.11,0-.22.02-.34.03l-.06-.06c0-.72.03-1.43.03-2.14,0-1.72,0-3.44,0-5.16,0-.3.08-.39.38-.38.99.1,1.98-.08,2.87-.52,1.47-.86,2.23-2.55,1.91-4.22-.35-1.65-1.71-2.9-3.38-3.1-.49-.04-.97-.06-1.46-.05-.24,0-.32-.05-.32-.31.01-2.38.01-4.76,0-7.14,0-.19.04-.3.25-.27.09,0,.17,0,.26,0,12.66,0,25.32,0,37.99-.01.45,0,.52.12.52.54-.02,2.25-.02,4.5,0,6.75,0,.36-.1.45-.45.44-.96-.1-1.93.08-2.79.51-1.47.85-2.24,2.54-1.93,4.21.34,1.67,1.72,2.93,3.41,3.12.46.04.92.06,1.37.04.3-.01.38.07.38.38-.01,2.31-.01,4.62,0,6.92,0,.13.02.25.03.38l-.06.06ZM21.7,39.55c1.33,1.39,1.92,3.34,1.6,5.24-.29,2.62-2.19,4.78-4.75,5.41-.31.1-.44.21-.42.55.03.57.03,1.15,0,1.72-.03.42.08.54.53.54,10.93-.02,21.85-.02,32.78-.01.09,0,.17,0,.26,0,.23.03.29-.08.28-.29-.01-.62-.04-1.24,0-1.85.03-.43-.13-.57-.53-.68-3.11-.88-5.1-3.92-4.65-7.12.3-2.62,2.2-4.77,4.75-5.41.31-.1.44-.21.42-.55-.03-.57-.03-1.15,0-1.72.03-.42-.08-.54-.53-.54-10.93.01-21.86.02-32.79,0-.09,0-.17,0-.26,0-.23-.03-.29.08-.28.29.01.67.02,1.35,0,2.02-.04.21.1.41.31.45.02,0,.04,0,.06,0,1.23.33,2.34,1,3.21,1.93"/>
          </g>
        </g>
      </g>
    </g>
  </g>
</svg>